<svg width="48" height="48" viewBox="0 0 48 48" fill="none" xmlns="http://www.w3.org/2000/svg">
<path d="M17.75 5.80001L34.6 22.6C34.8 22.8 34.9413 23.0167 35.024 23.25C35.108 23.4833 35.15 23.7333 35.15 24C35.15 24.2667 35.108 24.5167 35.024 24.75C34.9413 24.9833 34.8 25.2 34.6 25.4L17.75 42.25C17.2833 42.7167 16.7 42.95 16 42.95C15.3 42.95 14.7 42.7 14.2 42.2C13.7 41.7 13.45 41.1167 13.45 40.45C13.45 39.7833 13.7 39.2 14.2 38.7L28.9 24L14.2 9.30001C13.7333 8.83334 13.5 8.25868 13.5 7.57601C13.5 6.89201 13.75 6.30001 14.25 5.80001C14.75 5.30001 15.3333 5.05001 16 5.05001C16.6667 5.05001 17.25 5.30001 17.75 5.80001Z" fill="#717171"/>
</svg>
